<svg xmlns="http://www.w3.org/2000/svg" viewBox="0 0 268.37 270.24"><defs><style>.cls-1,.cls-2{fill:#ff0;}.cls-2{font-size:24px;font-family:CorporateSPro-Demi, Corporate S Pro;font-weight:300;}</style></defs><g id="Layer_2" data-name="Layer 2"><g id="background"><g id="_1HMqz2.tif" data-name="1HMqz2.tif"><path class="cls-1" d="M107.47,101l72.82.84a7.9,7.9,0,0,0-.47-1.07c-1.47-2.42-2.91-4.85-4.46-7.21-.46-.7-.45-1,.22-1.51a21.08,21.08,0,0,0,2.16-1.74c.52-.47.82-.38,1.24.15a44.24,44.24,0,0,1,6.12,10.62,1.2,1.2,0,0,0,1.34.89,29.5,29.5,0,0,1,10.35,1.34,27.23,27.23,0,0,1,17.6,17.36,25.54,25.54,0,0,1,1.45,9.29c0,1.45-.08,2.89,0,4.34,0,.76-.24,1-1,1-5.29-.09-10.59-.14-15.88-.2-2.27,0-2.28,0-3,2.1-1.31,3.82-2.63,7.64-3.9,11.48a.92.92,0,0,1-1.06.73c-3.1-.06-6.19-.08-9.29-.12h-1.18c.31,1.46.58,2.77.87,4.08l3,13.88q1.53,7,3.05,14,1.38,6.31,2.74,12.61t2.72,12.44q1.4,6.34,2.77,12.7c.62,2.82,1.22,5.64,1.87,8.45.16.69.08,1-.68,1.12-1.22.2-2.41.53-3.72.82-.4-1.8-.8-3.54-1.18-5.28q-1.55-7-3.07-14.05t-3-13.88q-1.37-6.21-2.72-12.44T180.38,171c-1-4.57-2-9.14-3-13.71-.52-2.37-1.09-4.73-1.54-7.11-.15-.77-.44-1-1.18-1q-15.06-.15-30.11-.33-16.76-.2-33.5-.41c-.9,0-1.25.25-1.44,1.11-.94,4.11-1.94,8.2-2.89,12.31-.13.6-.36.76-1,.6-1.06-.28-2.13-.51-3.2-.74-.67-.14-.51-.6-.42-1,.47-2,1-4,1.44-6.06s1-4,1.45-6.18c-.4,0-.73-.08-1.06-.08-3.12,0-6.24-.09-9.37-.1a1,1,0,0,1-1.14-.87c-1.26-4.23-2.57-8.44-3.84-12.67a1.13,1.13,0,0,0-1.28-.95c-5.55,0-11.1-.12-16.66-.18-1.15,0-1.18,0-1.14-1.15.11-2.74,0-5.51.4-8.21a26.12,26.12,0,0,1,9-16.45A27.11,27.11,0,0,1,98.71,101c.89,0,1.79,0,2.69,0a1.08,1.08,0,0,0,1.22-.79,44.4,44.4,0,0,1,23.44-23.34,41.94,41.94,0,0,1,13.54-3.44,44.22,44.22,0,0,1,34.61,11.83c.61.55.61.9,0,1.43a17.05,17.05,0,0,0-1.87,1.93c-.53.62-.91.56-1.48,0A39.57,39.57,0,0,0,138.7,78.3c-14,2-24.23,9.34-30.83,21.8C107.74,100.35,107.64,100.62,107.47,101Zm35.74,28.7,66.21.76a8.42,8.42,0,0,1,.87,0c.71.08.93-.26.86-.91a44.23,44.23,0,0,0-.54-4.9,22.64,22.64,0,0,0-21.92-17.93q-45.21-.54-90.42-1a22.16,22.16,0,0,0-8,1.35,22.83,22.83,0,0,0-15,20.53c-.06,1.34-.06,1.34,1.26,1.36Zm-14.6,4.57-4.68-.05c-.4,0-.77,0-.71.59q.41,4.14.79,8.28a.76.76,0,0,0,.88.81q4,0,8.07.09c.63,0,.87-.23.87-.86,0-2.63,0-5.26.09-7.89,0-.67-.21-.94-.89-.93C131.56,134.33,130.08,134.29,128.61,134.28Zm29.46.34c-1.47,0-2.94,0-4.42-.06-.7,0-1,.21-1,.94,0,2.59,0,5.19-.09,7.79,0,.74.27,1,1,1,2.51,0,5,0,7.53.1.89,0,1.24-.25,1.33-1.12.26-2.61.57-5.22.9-7.82.09-.67-.25-.73-.74-.73Zm13.7,9.82c1.27,0,2.54,0,3.81.06.65,0,.92-.21,1-.84.44-2.74.9-5.47,1.36-8.2.09-.51-.19-.61-.58-.62l-8.58-.1c-.44,0-.68.15-.74.64-.31,2.72-.64,5.45-1,8.17-.09.67.16.86.8.86C169.17,144.39,170.47,144.43,171.77,144.44Zm-58.2-10.33-4.24-.05c-.41,0-.76,0-.68.61.41,2.74.81,5.48,1.17,8.23.08.66.37.85,1,.85,2.51,0,5,0,7.54.09.87,0,1-.29.92-1.06-.28-2.58-.54-5.17-.75-7.76-.06-.68-.35-.88-1-.88C116.23,134.15,114.9,134.12,113.57,134.11Zm25,5c0,1.33,0,2.66-.06,4,0,.7.17,1,.91,1,2.54,0,5.08,0,7.62.08.62,0,.88-.16.88-.82,0-2.69,0-5.38.09-8.06,0-.55-.15-.79-.73-.79-2.63,0-5.26,0-7.89-.1-.61,0-.79.24-.79.83C138.61,136.52,138.57,137.82,138.56,139.12ZM94.4,134c0,.24,0,.39.08.52.85,2.81,1.71,5.62,2.55,8.44a.85.85,0,0,0,1,.67c2,0,4,0,6,.06,1.19,0,1.22,0,1.05-1.22-.36-2.51-.74-5-1.05-7.54-.09-.71-.38-.93-1.06-.93-2.54,0-5.08-.05-7.62-.07A7.23,7.23,0,0,0,94.4,134Zm97.15,1.25c-.19-.11-.26-.18-.34-.18-2.63,0-5.26-.1-7.89-.09a.88.88,0,0,0-.6.57c-.48,2.76-.92,5.52-1.38,8.29-.08.5,0,.75.62.75,1.91,0,3.81,0,5.72.07a.9.9,0,0,0,1-.76c.56-1.76,1.19-3.5,1.78-5.24C190.82,137.49,191.18,136.35,191.55,135.22Z"/><path class="cls-1" d="M91,228.07c-1.36-.32-2.58-.64-3.82-.9-.52-.11-.65-.34-.53-.85q2.31-9.6,4.58-19.21C92.63,201,94,195,95.48,188.89s2.89-12.13,4.33-18.2c.29-1.21.57-2.42.82-3.63.15-.68.47-.9,1.16-.69,1,.29,2,.52,3,.75.52.11.61.36.49.86-1.81,7.59-3.59,15.18-5.39,22.76Q97,203.22,94,215.69c-.9,3.82-1.78,7.65-2.68,11.47A7.77,7.77,0,0,1,91,228.07Z"/><path class="cls-1" d="M144.62,194.3c-.05,4.33-.12,8.67-.13,13,0,.79-.24,1.09-1.05,1a18.79,18.79,0,0,0-2.6,0c-.86.06-1.08-.31-1.05-1.12.07-1.56.05-3.12.07-4.68l.24-21.25c0-1.22,0-1.22,1.27-1.21.81,0,1.62.07,2.43,0s1,.29,1,1.06C144.71,185.5,144.67,189.9,144.62,194.3Z"/><path class="cls-1" d="M108.77,197.56c.88-3.31,1.71-6.49,2.57-9.66,1.33-5,2.68-9.91,4-14.87.16-.6.36-.83,1-.63a25.29,25.29,0,0,0,2.84.76c.79.16.88.57.7,1.24-.67,2.45-1.32,4.9-2,7.35-1.34,5-2.7,10-4,14.95-.54,2.05-.5,2.07-2.54,1.58C110.52,198.08,109.7,197.82,108.77,197.56Z"/><path class="cls-1" d="M169.66,173.42l6.4,25c-1.46.36-2.87.72-4.29,1-.11,0-.39-.31-.45-.52q-1.63-6.28-3.23-12.57c-.92-3.64-1.83-7.28-2.79-10.9-.19-.72,0-1,.67-1.13C167.18,174.07,168.37,173.74,169.66,173.42Z"/><path class="cls-1" d="M122.65,95.73l-3.44-3.34c1.43-1.14,2.75-2.29,4.17-3.31A34.65,34.65,0,0,1,138.85,83c1.48-.21,3-.21,4.49-.32.57,0,.76.18.74.74-.05,1-.08,2,0,3,0,.78-.27,1-1,1a29.42,29.42,0,0,0-13.16,3.25,30.33,30.33,0,0,0-6.63,4.54Z"/><path class="cls-1" d="M144.38,215.43a12.31,12.31,0,0,1,0,1.72.89.89,0,0,1-.61.58c-1.13.05-2.25,0-3.38,0-.5,0-.66-.24-.65-.69,0-1.13,0-2.26,0-3.38,0-.45.16-.71.66-.7,1.12,0,2.25.05,3.38,0,.5,0,.64.25.63.7S144.38,214.85,144.38,215.43Z"/><path class="cls-1" d="M178.23,118.38a7.83,7.83,0,1,1,7.74,7.89A7.83,7.83,0,0,1,178.23,118.38Zm7.87-3a3.12,3.12,0,1,0,3.08,3.12A3.15,3.15,0,0,0,186.1,115.33Z"/><path class="cls-1" d="M143.59,125.78a7.84,7.84,0,1,1,7.94-7.72A7.87,7.87,0,0,1,143.59,125.78Zm.14-10.94a3.12,3.12,0,0,0-.1,6.23,3.12,3.12,0,0,0,.1-6.23Z"/><path class="cls-1" d="M93.49,117.4a7.83,7.83,0,1,1,7.74,7.89A7.81,7.81,0,0,1,93.49,117.4Zm7.85-3.05a3.12,3.12,0,1,0,3.1,3.18A3.15,3.15,0,0,0,101.34,114.35Z"/></g><text class="cls-2" transform="matrix(0.21, -0.98, 0.98, 0.21, 19.52, 125.06)">A</text><text class="cls-2" transform="matrix(0.41, -0.91, 0.91, 0.41, 25.96, 100.7)">N</text><text class="cls-2" transform="matrix(0.57, -0.82, 0.82, 0.57, 38.55, 76.49)">I</text><text class="cls-2" transform="matrix(0.72, -0.7, 0.7, 0.72, 49.04, 62.21)">M</text><text class="cls-2" transform="matrix(0.85, -0.53, 0.53, 0.85, 71.59, 42.29)">A</text><text class="cls-2" transform="translate(92.4 30.6) rotate(-21.3)">T</text><text class="cls-2" transform="translate(114.15 23.35) rotate(-11.9)">I</text><text class="cls-2" transform="translate(131.65 20.27) rotate(-1.66)">O</text><text class="cls-2" transform="translate(158.62 20.66) rotate(10.65)">N</text></g></g></svg>