<svg xmlns="http://www.w3.org/2000/svg" viewBox="0 0 342.48 348.73"><defs><style>.cls-1{font-size:24px;font-family:CorporateSPro-Demi, Corporate S Pro;font-weight:300;}.cls-1,.cls-2{fill:#ff0;}</style></defs><g id="Layer_2" data-name="Layer 2"><g id="background"><text class="cls-1" transform="translate(70.5 250.82) rotate(-112.32)">B</text><text class="cls-1" transform="matrix(-0.19, -0.98, 0.98, -0.19, 62.08, 227.41)">R</text><text class="cls-1" transform="translate(58.42 202.63) rotate(-89.46)">A</text><text class="cls-1" transform="translate(59.73 177.46) rotate(-77.39)">N</text><text class="cls-1" transform="matrix(0.42, -0.91, 0.91, 0.42, 66.86, 151.26)">D</text><text class="cls-1" transform="matrix(0.57, -0.82, 0.82, 0.57, 79.3, 127.76)"> </text><text class="cls-1" transform="matrix(0.7, -0.71, 0.71, 0.7, 89.72, 113.91)">+</text><text class="cls-1" transform="matrix(0.81, -0.59, 0.59, 0.81, 107.81, 97.28)"> </text><text class="cls-1" transform="matrix(0.91, -0.42, 0.42, 0.91, 122.06, 87.54)">M</text><text class="cls-1" transform="translate(149.94 76.2) rotate(-12.41)">A</text><text class="cls-1" transform="translate(174.81 71.88) rotate(-0.92)">R</text><text class="cls-1" transform="matrix(0.98, 0.19, -0.19, 0.98, 199.85, 72.6)">K</text><text class="cls-1" transform="translate(224.6 78.49) rotate(22.01)">E</text><text class="cls-1" transform="translate(246.15 88.37) rotate(32.54)">T</text><text class="cls-1" transform="translate(264.87 101.65) rotate(41.89)">I</text><text class="cls-1" transform="matrix(0.61, 0.79, -0.79, 0.61, 277.67, 113.93)">N</text><text class="cls-1" transform="translate(293.28 136.12) rotate(64.51)">G</text><g id="cTQIqW.tif"><path class="cls-2" d="M191.69,254.86A48.41,48.41,0,0,1,178,253.2a54.94,54.94,0,0,1-25.82-15.28,54.8,54.8,0,0,1-7.57-10.13,53.85,53.85,0,0,1-4.73-10.64,53.87,53.87,0,0,1-.91-29.64,52.86,52.86,0,0,1,4.91-12.65c1.08-2,2.4-3.88,3.65-5.78a1,1,0,0,0-.12-1.51c-.78-.77-1.54-1.55-2.32-2.31-.57-.55-.9-.5-1.38.14a58.2,58.2,0,0,0-6.77,11.85,59.19,59.19,0,0,0-4.13,14.46,62.68,62.68,0,0,0-.22,16.53,54.11,54.11,0,0,0,2.63,11.51,60,60,0,0,0,24.95,31.44,55.91,55.91,0,0,0,12.77,6,60.54,60.54,0,0,0,23,2.79,56.09,56.09,0,0,0,12.68-2.33,61.22,61.22,0,0,0,10.77-4.41A57.68,57.68,0,0,0,231.23,245,59.59,59.59,0,0,0,247,222.2a57.64,57.64,0,0,0,3.1-10.9A60.68,60.68,0,0,0,249,185.22a51.26,51.26,0,0,0-3.54-9.69,87.67,87.67,0,0,0-5.12-8.8,56.14,56.14,0,0,0-12.41-13.1,57.49,57.49,0,0,0-11.75-7.11,56.55,56.55,0,0,0-14.3-4.39,59,59,0,0,0-26.67,1.38,59.16,59.16,0,0,0-13.07,5.5c-2,1.14-3.89,2.48-5.8,3.76-.69.47-.71.84-.13,1.47.74.8,1.53,1.55,2.28,2.34a.94.94,0,0,0,1.37.13,50.86,50.86,0,0,1,4.91-3.13,81.6,81.6,0,0,1,8.45-3.9,51.67,51.67,0,0,1,21.4-3.18,54.55,54.55,0,0,1,10.67,1.71,54.23,54.23,0,0,1,24.14,13.68,52.41,52.41,0,0,1,8.26,10.28,57.33,57.33,0,0,1,4.6,9.33,54.37,54.37,0,0,1,3.08,12.19,51.62,51.62,0,0,1-.05,14.37,55.85,55.85,0,0,1-3.06,11.87,54.37,54.37,0,0,1-24.41,28.17,51.35,51.35,0,0,1-10.41,4.46A49.58,49.58,0,0,1,191.69,254.86Z"/><path class="cls-2" d="M155.84,200.72a35.57,35.57,0,0,1,1.71-10.89,36,36,0,0,1,3.35-7.43,1.08,1.08,0,0,0-.19-1.52c-.83-.82-1.68-1.61-2.51-2.44-.39-.4-.72-.25-1,.09a18.28,18.28,0,0,0-1.16,1.75,39.72,39.72,0,0,0-3.94,9.37,37.79,37.79,0,0,0-1.4,13.25,55.28,55.28,0,0,0,1.37,8.59A38.25,38.25,0,0,0,157,222.6a42.37,42.37,0,0,0,7.58,8.83,41.18,41.18,0,0,0,9.67,6.31,37.75,37.75,0,0,0,10.2,3.22,42,42,0,0,0,11.09.37A41.45,41.45,0,0,0,205.78,239a40,40,0,0,0,9.2-4.82,41.4,41.4,0,0,0,12-13,40.88,40.88,0,0,0-12.7-54.49,35.84,35.84,0,0,0-8.57-4.35c-2.23-.74-4.53-1.27-6.82-1.82a33.63,33.63,0,0,0-10.54-.59,36.82,36.82,0,0,0-12.91,3.21c-1.89.89-3.74,1.9-5.58,2.89-1,.54-1,.87-.21,1.68s1.43,1.43,2.14,2.15a1.06,1.06,0,0,0,1.4.23c1.47-.77,2.93-1.56,4.45-2.21a29.86,29.86,0,0,1,11.44-2.7,56.48,56.48,0,0,1,8.23.31,32.5,32.5,0,0,1,11,3.71,36,36,0,0,1,9.18,7,35.15,35.15,0,0,1,7.1,11,35.73,35.73,0,0,1,2.5,17.16,34.38,34.38,0,0,1-2.35,9.49,36.11,36.11,0,0,1-4.16,7.62,36.51,36.51,0,0,1-8.26,8.29,33.7,33.7,0,0,1-8.58,4.51,35.71,35.71,0,0,1-28.87-2,36,36,0,0,1-18.61-26.43C156,204.1,156,202.4,155.84,200.72Z"/><path class="cls-2" d="M112.5,130.59h7.24c1.55,0,1.67-.12,1.69-1.69,0-.68,0-1.35,0-2q0-6.42,0-12.85a3.18,3.18,0,0,1,.28-.91,3.52,3.52,0,0,1,.82.42c1.19,1.16,2.35,2.34,3.53,3.52q9.08,9.09,18.18,18.16a2.62,2.62,0,0,1,.88,2.34c-.4,3.43-.73,6.87-1.13,10.29a2.48,2.48,0,0,0,.69,2.32c5.33,5.28,10.62,10.6,15.92,15.9l15,15,13.71,13.71c1.43,1.43,2.88,2.84,4.24,4.34a2.55,2.55,0,0,1-2.14,4.15,3.25,3.25,0,0,1-2.2-1.17q-7-7-14-14.06c-3.52-3.53-7.06-7-10.59-10.55-2.56-2.57-5.11-5.16-7.68-7.73q-3.48-3.5-7-7l-9.09-9.07a1.83,1.83,0,0,0-1.61-.56c-3.69.4-7.38.76-11.07,1.18a2,2,0,0,1-1.75-.6c-.8-.84-1.61-1.68-2.44-2.5l-11.54-11.46q-4-4-7.9-7.95a4.67,4.67,0,0,1-.55-.92,4.76,4.76,0,0,1,1.06-.28c2.5,0,5,0,7.48,0Zm14.22-3.83c0,2.49,0,5,0,7.47,0,1.33-.2,1.53-1.54,1.52-2.56,0-5.13,0-7.7,0a3.43,3.43,0,0,0-.9.27,3.11,3.11,0,0,0,.41.86q5.63,5.66,11.28,11.27a1.91,1.91,0,0,0,1.65.67c2.43-.25,4.86-.45,7.28-.71,1.52-.16,1.71-.4,1.84-1.94.2-2.27.4-4.54.63-6.81a2.36,2.36,0,0,0-.76-2.09q-5.66-5.61-11.3-11.25c-.14-.14-.31-.25-.69-.55A9.55,9.55,0,0,0,126.72,126.76Z"/><path class="cls-2" d="M190.41,223c8.53-.17,14.69-3.2,19.22-9.32a21.65,21.65,0,0,0,4.17-14.35,21.4,21.4,0,0,0-3.69-11.09,22,22,0,0,0-10-8.18,21.4,21.4,0,0,0-13-1.29c-1.34.29-2.64.76-3.94,1.18-.6.19-.69.61-.25,1.06a34.86,34.86,0,0,0,2.93,2.9,2.2,2.2,0,0,0,1.6.14,16.7,16.7,0,0,1,12.86,2,16.32,16.32,0,0,1,7.66,10.17A16.72,16.72,0,0,1,202.12,214a17.06,17.06,0,0,1-26.6-7.44,16.24,16.24,0,0,1-.55-10,1.87,1.87,0,0,0-.6-2c-.8-.73-1.53-1.54-2.31-2.31-.63-.62-1-.54-1.27.28a22,22,0,0,0,.18,16.78,21.67,21.67,0,0,0,6.83,8.92A20.55,20.55,0,0,0,185,222C187,222.57,189.18,222.81,190.41,223Z"/></g></g></g></svg>