<svg width="483" height="190" viewBox="0 0 483 190" fill="none" xmlns="http://www.w3.org/2000/svg">
<path d="M18.8964 135.209C10.7646 127.059 5.22894 116.683 2.98786 105.391C0.746777 94.098 1.90071 82.3947 6.30404 71.7571C10.7074 61.1196 18.1628 52.0245 27.7297 45.6197C37.2965 39.2148 48.5461 35.7872 60.059 35.7691C69.65 35.7533 79.0967 38.1047 87.5611 42.615C96.0255 47.1253 103.246 53.6549 108.582 61.6246C113.918 69.5942 117.205 78.7578 118.15 88.3021C119.096 97.8464 117.671 107.477 114.003 116.338C110.335 125.2 104.536 133.02 97.1213 139.103C89.7066 145.187 80.905 149.346 71.4973 151.213C62.0897 153.08 52.3667 152.596 43.191 149.804C34.0152 147.012 25.6703 141.999 18.8964 135.209V135.209ZM21.9269 55.9124C14.3911 63.4614 9.26087 73.0738 7.18367 83.5361C5.10648 93.9984 6.17548 104.842 10.2557 114.697C14.336 124.552 21.2446 132.978 30.1094 138.91C38.9742 144.842 49.3978 148.015 60.0643 148.028C68.9461 148.039 77.6933 145.857 85.5303 141.678C93.3673 137.499 100.052 131.45 104.992 124.069C109.931 116.687 112.973 108.201 113.847 99.3621C114.722 90.5235 113.401 81.6059 110.004 73.3996C106.606 65.1934 101.236 57.9519 94.3702 52.318C87.5039 46.6841 79.3536 42.8318 70.6418 41.1022C61.9301 39.3726 52.9261 39.8191 44.4284 42.4026C35.9307 44.9861 28.2017 49.6265 21.9269 55.9124V55.9124Z" fill="black" stroke="black" stroke-width="2.348" stroke-miterlimit="10"/>
<path d="M147.959 20.8799H195.268L106.152 184.48H186.568V188.778H98.9043L188.019 25.1724H147.959C139.883 25.1724 135.15 20.8817 135.15 13.7476C135.15 3.71504 143.006 2 143.006 2C143.006 2 139.315 7.45495 139.315 11.9293C139.315 14.7762 140.243 20.8799 147.959 20.8799Z" fill="black" stroke="black" stroke-width="2.348" stroke-miterlimit="10"/>
<path d="M205.429 135.209C200.001 129.808 195.692 123.39 192.749 116.321C189.805 109.253 188.285 101.673 188.276 94.0168C188.266 86.3601 189.767 78.7766 192.693 71.7009C195.619 64.6252 199.912 58.1964 205.326 52.7823C210.74 47.3682 217.169 43.0755 224.244 40.1499C231.32 37.2242 238.903 35.7229 246.56 35.7325C254.217 35.742 261.796 37.2622 268.865 40.2056C275.933 43.1489 282.351 47.4574 287.752 52.885C293.179 58.2855 297.488 64.7039 300.432 71.7723C303.375 78.8406 304.895 86.4201 304.904 94.0768C304.914 101.733 303.413 109.317 300.487 116.393C297.562 123.468 293.269 129.897 287.855 135.311C282.441 140.725 276.012 145.018 268.936 147.944C261.86 150.87 254.277 152.371 246.62 152.361C238.964 152.352 231.384 150.832 224.316 147.888C217.247 144.945 210.829 140.636 205.429 135.209V135.209ZM208.459 55.9119C203.41 60.911 199.398 66.8588 196.655 73.413C193.911 79.9672 192.49 86.999 192.472 94.1042C192.455 101.209 193.841 108.248 196.552 114.815C199.263 121.383 203.245 127.351 208.269 132.375C213.294 137.399 219.261 141.381 225.829 144.092C232.397 146.802 239.435 148.189 246.54 148.171C253.646 148.153 260.677 146.732 267.232 143.988C273.786 141.244 279.733 137.233 284.732 132.183C289.781 127.184 293.793 121.237 296.536 114.683C299.28 108.129 300.701 101.097 300.719 93.9915C300.736 86.8863 299.35 79.8476 296.639 73.2798C293.928 66.7121 289.946 60.7449 284.922 55.7208C279.898 50.6967 273.93 46.7149 267.362 44.0041C260.794 41.2933 253.756 39.9066 246.651 39.9244C239.545 39.9422 232.514 41.364 225.96 44.1077C219.405 46.8513 213.458 50.8627 208.459 55.9119V55.9119Z" fill="black" stroke="black" stroke-width="2.348" stroke-miterlimit="10"/>
<path d="M334.668 142.058C331.021 138.551 328.135 134.331 326.19 129.66C324.245 124.989 323.282 119.967 323.363 114.908V36.8022H327.663V114.908C327.663 123.967 331.261 132.654 337.667 139.059C344.072 145.465 352.759 149.063 361.818 149.063C370.876 149.063 379.564 145.465 385.969 139.059C392.374 132.654 395.973 123.967 395.973 114.908V36.8022H400.273V114.908C400.283 122.513 398.035 129.95 393.814 136.276C389.592 142.602 383.587 147.531 376.559 150.44C369.532 153.348 361.8 154.104 354.342 152.611C346.885 151.119 340.039 147.446 334.672 142.058H334.668Z" fill="black" stroke="black" stroke-width="2.348" stroke-miterlimit="10"/>
<path d="M481.2 36.8828V41.1823H427.06V91.7394H470.611V95.9587H427.06V151.22H422.762V36.8898L481.2 36.8828Z" fill="black" stroke="black" stroke-width="2.348" stroke-miterlimit="10"/>
</svg>
