<?xml version="1.0" encoding="UTF-8"?><svg id="Layer_2" xmlns="http://www.w3.org/2000/svg" viewBox="0 0 594.2 238.41"><defs><style>.cls-1{stroke:#000;stroke-miterlimit:10;stroke-width:8px;}</style></defs><g id="Layer_1-2"><g><path class="cls-1" d="M24.93,168.91c-13.96-13.89-20.93-30.67-20.93-50.33s6.98-36.44,20.93-50.33c13.89-13.95,30.67-20.93,50.33-20.93s36.44,6.98,50.33,20.93c13.95,13.89,20.93,30.67,20.93,50.33s-6.98,36.44-20.93,50.33c-13.89,13.96-30.67,20.93-50.33,20.93s-36.44-6.98-50.33-20.93Zm3.7-96.96c-12.92,12.85-19.37,28.39-19.37,46.63s6.46,33.72,19.37,46.63c12.85,12.92,28.39,19.37,46.63,19.37s33.78-6.46,46.63-19.37c12.91-12.91,19.37-28.46,19.37-46.63s-6.46-33.78-19.37-46.63c-12.85-12.91-28.39-19.37-46.63-19.37s-33.78,6.46-46.63,19.37Z"/><path class="cls-1" d="M182.74,29.12h57.84l-108.96,200.04h98.33v5.26H122.76L231.72,34.37h-48.98c-9.87,0-15.66-5.25-15.66-13.97,0-12.27,9.61-14.36,9.61-14.36,0,0-4.51,6.67-4.51,12.14,0,3.47,1.14,10.94,10.57,10.94Z"/><path class="cls-1" d="M253,168.91c-13.96-13.89-20.93-30.67-20.93-50.33s6.98-36.44,20.93-50.33c13.89-13.95,30.67-20.93,50.33-20.93s36.44,6.98,50.33,20.93c13.95,13.89,20.93,30.67,20.93,50.33s-6.98,36.44-20.93,50.33c-13.89,13.96-30.67,20.93-50.33,20.93s-36.44-6.98-50.33-20.93Zm3.7-96.96c-12.92,12.85-19.37,28.39-19.37,46.63s6.46,33.72,19.37,46.63c12.85,12.92,28.39,19.37,46.63,19.37s33.78-6.46,46.63-19.37c12.91-12.91,19.37-28.46,19.37-46.63s-6.46-33.78-19.37-46.63c-12.85-12.91-28.39-19.37-46.63-19.37s-33.78,6.46-46.63,19.37Z"/><path class="cls-1" d="M411.04,177.28c-9.22-9.15-13.82-20.21-13.82-33.2V48.59h5.26v95.5c0,11.49,4.09,21.32,12.27,29.5,8.18,8.18,18.01,12.27,29.5,12.27s21.38-4.09,29.5-12.27c8.18-8.18,12.27-18.01,12.27-29.5V48.59h5.26v95.5c0,12.98-4.58,24.05-13.73,33.2-9.22,9.22-20.31,13.82-33.29,13.82s-24.04-4.61-33.2-13.82Z"/><path class="cls-1" d="M590.2,48.68v5.26h-66.2v61.82h53.25v5.16h-53.25v67.56h-5.26V48.68h71.45Z"/></g></g></svg>