<svg xmlns="http://www.w3.org/2000/svg" viewBox="0 0 270.24 270.24"><defs><style>.cls-1{font-size:24px;font-family:CorporateSPro-Demi, Corporate S Pro;font-weight:300;}.cls-1,.cls-2{fill:#ff0;}</style></defs><g id="Layer_2" data-name="Layer 2"><g id="background"><text class="cls-1" transform="translate(39.66 212.81) rotate(-119.75)">P</text><text class="cls-1" transform="matrix(-0.32, -0.95, 0.95, -0.32, 28.92, 192.14)">A</text><text class="cls-1" transform="translate(21.96 168.49) rotate(-97.38)">C</text><text class="cls-1" transform="translate(19.81 143.01) rotate(-85.84)">K</text><text class="cls-1" transform="translate(22.79 117.76) rotate(-74.21)">A</text><text class="cls-1" transform="matrix(0.46, -0.89, 0.89, 0.46, 30.46, 94.38)">G</text><text class="cls-1" transform="translate(43.82 71.58) rotate(-52.5)">I</text><text class="cls-1" transform="matrix(0.74, -0.67, 0.67, 0.74, 55.09, 57.86)">N</text><text class="cls-1" transform="matrix(0.87, -0.5, 0.5, 0.87, 75.99, 40.54)">G</text><text class="cls-1" transform="translate(99.52 28.52) rotate(-19.99)"> </text><text class="cls-1" transform="translate(115.97 23.17) rotate(-9.88)">D</text><text class="cls-1" transform="matrix(1, 0.03, -0.03, 1, 142.26, 19.87)">E</text><text class="cls-1" transform="translate(165.91 21.53) rotate(12.55)">S</text><text class="cls-1" transform="translate(189.67 28.11) rotate(22.35)">I</text><text class="cls-1" transform="matrix(0.84, 0.54, -0.54, 0.84, 205.84, 35.43)">G</text><text class="cls-1" transform="translate(227.43 50.54) rotate(44.7)">N</text><path class="cls-2" d="M92.25,170.55c0-4.42,0-8.83,0-13.25A1.67,1.67,0,0,0,91,155.43c-5.15-2-10.24-4.15-15.37-6.2-2-.82-2.3-1.7-.82-3.37q8-9,16-18a1.25,1.25,0,0,0,0-2c-5.35-6-10.65-12-16-18-1.21-1.36-1.28-2.51.64-3.26,5.07-2,10.09-4.09,15.13-6.14s10.16-4.16,15.24-6.22c5.49-2.23,11-4.43,16.5-6.64l3.11-1.27A2,2,0,0,1,128,85q7.45,8.49,15,16.94c2.28,2.55,1.74,2.41,3.88,0,4.93-5.49,9.79-11,14.68-16.57,1.32-1.5,1.69-1.54,3.53-.78,6.15,2.51,12.32,5,18.48,7.49l16.56,6.77c4.82,2,9.66,3.9,14.47,5.88,1.7.7,1.85,1.48.62,2.87-5.33,6-10.66,12.09-16,18.09-.77.87-.81,1.42,0,2.3,5.25,5.85,10.44,11.74,15.66,17.62.15.18.32.36.47.55,1.09,1.3.89,2.21-.7,2.87-2.25.94-4.53,1.82-6.79,2.74-3,1.23-6,2.51-9,3.66-1,.38-1.17,1-1.17,1.91,0,8.67,0,17.35,0,26a2.57,2.57,0,0,1-1.81,2.82c-5,2-10,4-15,6.06l-15.24,6.2-14.81,6a23.25,23.25,0,0,0-3.21,1.32c-1.94,1.15-3.7.66-5.59-.13-5.76-2.41-11.57-4.7-17.35-7.06q-10.68-4.35-21.35-8.73c-3.18-1.3-6.36-2.62-9.58-3.86a2,2,0,0,1-1.41-2.21C92.27,179.38,92.25,175,92.25,170.55Zm54.13,32.67c1.39-.52,2.61-1,3.82-1.45L171.65,193c7.34-3,14.67-6,22-8.91a1.66,1.66,0,0,0,1.24-1.77q0-11.85,0-23.71c0-1.3-.22-1.48-1.4-1-4.46,1.77-8.91,3.58-13.36,5.38-5.11,2.07-10.22,4.18-15.34,6.23-1.88.75-1.92.68-3.26-.83q-7-7.87-13.95-15.74a16.22,16.22,0,0,0-1.23-1.11Zm-2.88-51.75a14.18,14.18,0,0,0-1.14,1.05c-2.38,2.66-4.74,5.34-7.1,8s-5,5.57-7.43,8.36a1.7,1.7,0,0,1-2.32.54c-1.17-.6-2.43-1-3.66-1.52l-15.26-6.16c-3.38-1.37-6.75-2.76-10.13-4.11-1.3-.52-1.53-.36-1.53,1q0,11.93,0,23.84a1.43,1.43,0,0,0,1,1.57c1.46.55,2.89,1.19,4.33,1.77l21.39,8.62q10.24,4.14,20.48,8.31c1.36.55,1.46.48,1.46-1q0-24.33,0-48.66C143.58,152.64,143.54,152.25,143.5,151.47Zm20.39-64.35a7,7,0,0,0-.86.71q-7.42,8.37-14.83,16.74c-.85,1-.77,1.18.41,1.66,4.49,1.81,9,3.65,13.45,5.47l15,6.08c5.46,2.21,10.92,4.38,16.36,6.63,2.36,1,2.35,1,4-.79,4.68-5.27,9.34-10.57,14-15.84.61-.69.66-1.15-.27-1.52l-9.56-3.89c-5.53-2.22-11.07-4.42-16.6-6.66-6-2.46-12.07-4.95-18.11-7.42C166,87.9,165,87.54,163.89,87.12Zm-16.45,60.95a5.5,5.5,0,0,0,.49.74c5.06,5.75,10.11,11.5,15.22,17.2a1.8,1.8,0,0,0,1.55.29c1.44-.47,2.82-1.12,4.23-1.69q9-3.62,17.93-7.23,9.24-3.74,18.47-7.51c2.22-.9,4.43-1.82,6.8-2.79a8.8,8.8,0,0,0-.69-1.09c-4.85-5.5-9.72-11-14.54-16.52a2,2,0,0,0-2.62-.52c-3.38,1.45-6.8,2.81-10.21,4.2l-15.15,6.12q-8.4,3.39-16.8,6.8C150.57,146.7,149.05,147.38,147.44,148.07Zm-4.86,0-4-1.63c-6.6-2.69-13.19-5.4-19.79-8.08-7.82-3.19-15.65-6.34-23.47-9.53a1.7,1.7,0,0,0-2.22.47c-4.88,5.58-9.82,11.11-14.72,16.67a5.39,5.39,0,0,0-.6,1c.31.16.47.27.65.35l8.24,3.35q9.89,4,19.79,8.07c6.12,2.48,12.26,4.91,18.37,7.43a1.61,1.61,0,0,0,2.17-.46c3.69-4.22,7.43-8.41,11.15-12.61C139.55,151.56,140.94,150,142.58,148.1Zm-48.4-22.81.88-.34L111,118.49l30.61-12.37c.81-.32.83-.7.27-1.32Q134.38,96.4,127,88a1.5,1.5,0,0,0-2-.47c-5.59,2.29-11.21,4.53-16.81,6.8Q99.05,98,89.93,101.7c-3.78,1.53-7.57,3-11.35,4.58-.73.3-.84.78-.29,1.4l15.09,17A4.29,4.29,0,0,0,94.18,125.29Zm97.38,1.86.13-.49L146.4,108.29c-.06.84-.13,1.31-.13,1.78q0,16.25,0,32.5c0,.6,0,1.2,0,1.81,0,.89.39,1,1.14.69,1.33-.56,2.67-1.09,4-1.63l15.13-6.14,15-6.09Zm-48.11-18.64c-2.51.47-44.66,17.81-45.18,18.54,0,.06.09.15.15.18L117.67,135l24.51,9.9c1.26.51,1.41.42,1.41-1q0-17,0-34.08C143.58,109.44,143.5,109,143.45,108.51Z"/></g></g></svg>