<svg xmlns="http://www.w3.org/2000/svg" viewBox="0 0 328.07 328.43"><defs><style>.cls-1{fill:#ffe900;}.cls-2{font-size:24px;fill:#ff0;font-family:CorporateSPro-Demi, Corporate S Pro;font-weight:300;}</style></defs><g id="Layer_2" data-name="Layer 2"><g id="background"><path class="cls-1" d="M274.25,234.36a4.21,4.21,0,0,1-2,3.6,4.17,4.17,0,0,1-4.07.29l-20.51-9.42-.1-50,20.46-9.49a4.26,4.26,0,0,1,6.05,3.86Zm-31.34.11a3.15,3.15,0,0,1-3.15,3.16l-90.16.19a3.14,3.14,0,0,1-3.15-3.15l-.13-61.22a3.15,3.15,0,0,1,3.14-3.16l90.16-.19a3.16,3.16,0,0,1,3.16,3.15Zm31.83-68.89A9,9,0,0,0,266,165l-18.45,8.56v-.32a8,8,0,0,0-8-8l-11.32,0,0-12.06A7.25,7.25,0,0,0,221,146l-77.16.16a2.42,2.42,0,0,0,0,4.83l77.16-.16a2.4,2.4,0,0,1,2.42,2.39l0,12.06-74,.15a8,8,0,0,0-8,8l.13,61.22a8,8,0,0,0,8,8l90.16-.19a8,8,0,0,0,7.95-8v-.32l18.48,8.49a9.33,9.33,0,0,0,3.82.83,9.11,9.11,0,0,0,9.06-9.11L279,173.22a9,9,0,0,0-4.21-7.64"/><text class="cls-2" transform="translate(97.46 270.97) rotate(-119.53)">V</text><text class="cls-2" transform="matrix(-0.34, -0.94, 0.94, -0.34, 86.1, 248.28)">I</text><text class="cls-2" transform="translate(80.73 231.35) rotate(-99.39)">D</text><text class="cls-2" transform="translate(77.67 205.08) rotate(-87.93)">E</text><text class="cls-2" transform="translate(79.48 181.46) rotate(-76.38)">O</text><text class="cls-2" transform="matrix(0.4, -0.92, 0.92, 0.4, 87.24, 155.5)"> </text><text class="cls-2" transform="translate(94.83 139.89) rotate(-56.61)">P</text><text class="cls-2" transform="translate(109.1 120.2) rotate(-45.24)">R</text><text class="cls-2" transform="matrix(0.83, -0.55, 0.55, 0.83, 127.3, 103.31)">O</text><text class="cls-2" transform="translate(150.45 89.42) rotate(-21.28)">D</text><text class="cls-2" transform="matrix(0.99, -0.16, 0.16, 0.99, 175.46, 80.94)">U</text><text class="cls-2" transform="translate(202.08 77.96) rotate(2.93)">C</text><text class="cls-2" transform="matrix(0.97, 0.24, -0.24, 0.97, 227.59, 80.48)">T</text><text class="cls-2" transform="translate(249.56 87.11) rotate(23.29)">I</text><text class="cls-2" transform="matrix(0.83, 0.55, -0.55, 0.83, 265.61, 94.66)">O</text><text class="cls-2" transform="translate(287.39 110.59) rotate(46.07)">N</text></g></g></svg>