<svg xmlns="http://www.w3.org/2000/svg" viewBox="0 0 383.91 385.64"><defs><style>.cls-1{font-size:24px;fill:#ff0;font-family:CorporateSPro-Demi, Corporate S Pro;font-weight:300;}.cls-2{fill:none;stroke:#ff0;stroke-miterlimit:10;stroke-width:4px;}</style></defs><g id="Layer_2" data-name="Layer 2"><g id="background"><text class="cls-1" transform="translate(64.78 215.43) rotate(-93.71)">W</text><text class="cls-1" transform="matrix(0.15, -0.99, 0.99, 0.15, 64.39, 184.52)">E</text><text class="cls-1" transform="translate(69.02 161.27) rotate(-70.15)">B</text><text class="cls-1" transform="translate(78.52 138.26) rotate(-58.85)">S</text><text class="cls-1" transform="translate(92.32 117.84) rotate(-49.09)">I</text><text class="cls-1" transform="translate(104.52 104.87) rotate(-39.69)">T</text><text class="cls-1" transform="matrix(0.87, -0.5, 0.5, 0.87, 122.76, 91.16)">E</text><text class="cls-1" transform="translate(144.09 80.53) rotate(-19.73)"> </text><text class="cls-1" transform="translate(160.59 75.24) rotate(-9.61)">D</text><text class="cls-1" transform="translate(186.86 72.08) rotate(1.92)">E</text><text class="cls-1" transform="matrix(0.97, 0.22, -0.22, 0.97, 210.51, 73.92)">S</text><text class="cls-1" transform="translate(234.22 80.64) rotate(22.6)">I</text><text class="cls-1" transform="translate(250.38 88.03) rotate(32.72)">G</text><text class="cls-1" transform="matrix(0.71, 0.71, -0.71, 0.71, 271.87, 103.21)">N</text><text class="cls-1" transform="translate(290.09 123.52) rotate(55.29)"> </text><text class="cls-1" transform="translate(299.44 138.14) rotate(64.77)">+</text><text class="cls-1" transform="translate(308.77 160.86) rotate(74.37)"> </text><text class="cls-1" transform="matrix(0.1, 0.99, -0.99, 0.1, 312.82, 177.7)">B</text><text class="cls-1" transform="translate(314.3 202.53) rotate(95.98)">U</text><text class="cls-1" transform="translate(310.11 229.08) rotate(106.15)">I</text><text class="cls-1" transform="matrix(-0.43, 0.9, -0.9, -0.43, 304.49, 245.96)">L</text><text class="cls-1" transform="matrix(-0.6, 0.8, -0.8, -0.6, 293.69, 266.4)">D</text><circle class="cls-2" cx="156.25" cy="237.21" r="5.81"/><circle class="cls-2" cx="219.14" cy="237.21" r="5.81"/><circle class="cls-2" cx="231.75" cy="156.66" r="5.81"/><circle class="cls-2" cx="217.96" cy="144.04" r="5.81"/><circle class="cls-2" cx="156.25" cy="144.04" r="5.81"/><circle class="cls-2" cx="132.03" cy="183.73" r="5.81"/><circle class="cls-2" cx="187.53" cy="156.66" r="5.81"/><circle class="cls-2" cx="166.68" cy="180.37" r="5.81"/><circle class="cls-2" cx="215.78" cy="194.32" r="5.81"/><path class="cls-2" d="M217.91,200.14a80.11,80.11,0,0,1,2.16,31.33"/><path class="cls-2" d="M192.15,160.18a79.7,79.7,0,0,1,21.72,28.65"/><path class="cls-2" d="M161.94,144.5a79,79,0,0,1,20.77,8.91"/><path class="cls-2" d="M172,179.83a105.69,105.69,0,0,1,38.64,11.79"/><path class="cls-2" d="M137.51,181.78a107.1,107.1,0,0,1,23.23-2.54"/><path class="cls-2" d="M229.22,161.89a105.93,105.93,0,0,1-11.48,27"/><path class="cls-2" d="M211.44,198.19A106.91,106.91,0,0,1,161.5,234.7"/><path class="cls-2" d="M133.14,177.92a55.85,55.85,0,0,1,18.7-30.09"/><path class="cls-2" d="M151.64,233.67a55.75,55.75,0,0,1-20-42.84c0-.35,0-.7,0-1.05"/><path class="cls-2" d="M214.17,240a55.94,55.94,0,0,1-52.66.33"/><path class="cls-2" d="M235.07,161.44a55.89,55.89,0,0,1-11.45,72.06"/><path class="cls-2" d="M222.5,147.23a55.24,55.24,0,0,1,5.46,5"/><path class="cls-2" d="M161.43,141.4a56,56,0,0,1,51.55-.34"/><path class="cls-2" d="M220.86,197.8a106.56,106.56,0,0,1,17.9,15.4"/><path class="cls-2" d="M192.5,153.65a76.46,76.46,0,0,1,19.82-8.23"/><path class="cls-2" d="M169.61,175.35a74.24,74.24,0,0,1,13.45-15"/><path class="cls-2" d="M155.25,231.09c-1.46-12.46.73-29.71,8.54-45.68"/></g></g></svg>